<svg width="72" height="72" viewBox="0 0 72 72" fill="none" xmlns="http://www.w3.org/2000/svg">
<path d="M46.2858 2.57129V33.4284L64.7486 56.9313C65.648 58.0694 66.2082 59.438 66.3651 60.88C66.5219 62.322 66.269 63.7791 65.6354 65.0839C65.0018 66.3887 64.0131 67.4885 62.7829 68.2569C61.5526 69.0254 60.1306 69.4314 58.6801 69.4284H13.3201C11.8695 69.4314 10.4476 69.0254 9.2173 68.2569C7.98704 67.4885 6.99837 66.3887 6.36475 65.0839C5.73113 63.7791 5.47823 62.322 5.63508 60.88C5.79193 59.438 6.35217 58.0694 7.2515 56.9313L25.7144 33.4284V2.57129M18.0001 2.57129H54.0001" stroke="#A50305" stroke-width="3" stroke-linecap="round" stroke-linejoin="round"/>
</svg>
